<mxfile host="app.diagrams.net" modified="2024-06-17T10:37:15.592Z" agent="Mozilla/5.0 (X11; Linux x86_64; rv:126.0) Gecko/20100101 Firefox/126.0" version="24.5.2" etag="grgXbTQqGv4RsiKiJHcT" type="github">
  <diagram name="Page-1" id="Dqqlosh0YNkY220nDudx">
    <mxGraphModel>
      <root>
        <mxCell id="0" />
        <mxCell id="1" parent="0" />
      </root>
    </mxGraphModel>
  </diagram>
</mxfile>
